<svg width="1440" height="119" viewBox="0 0 1440 119" fill="none" xmlns="http://www.w3.org/2000/svg">
<path fill-rule="evenodd" clip-rule="evenodd" d="M-13 0L30.4775 19.8333C75.2725 39.6667 162.227 79.3333 250.5 83.7407C338.772 88.1481 425.728 57.2963 514 50.6852C602.273 44.0741 689.227 61.7037 777.5 59.5C865.773 57.2963 952.727 35.2593 1041 33.0556C1129.27 30.8519 1216.23 48.4815 1304.5 66.1111C1392.77 83.7407 1479.73 101.37 1524.52 110.185L1568 119H1524.52C1479.73 119 1392.77 119 1304.5 119C1216.23 119 1129.27 119 1041 119C952.727 119 865.773 119 777.5 119C689.227 119 602.273 119 514 119C425.728 119 338.772 119 250.5 119C162.227 119 75.2725 119 30.4775 119H-13V0Z" fill="#4A4A4A"/>
</svg>
